<svg width="449" height="45" viewBox="0 0 449 45" fill="none" xmlns="http://www.w3.org/2000/svg">
<path d="M0.284091 44V0.363635H5.56818V19.7955H28.8352V0.363635H34.1193V44H28.8352V24.483H5.56818V44H0.284091ZM53.647 44.767C51.5732 44.767 49.6911 44.3764 48.0007 43.5952C46.3104 42.7997 44.968 41.6562 43.9737 40.1648C42.9794 38.6591 42.4822 36.8409 42.4822 34.7102C42.4822 32.8352 42.8516 31.3153 43.5902 30.1506C44.3288 28.9716 45.3161 28.0483 46.5518 27.3807C47.7876 26.7131 49.1513 26.2159 50.6428 25.8892C52.1484 25.5483 53.6612 25.2784 55.1811 25.0795C57.1697 24.8239 58.782 24.6321 60.0178 24.5043C61.2678 24.3622 62.1768 24.1278 62.745 23.8011C63.3274 23.4744 63.6186 22.9062 63.6186 22.0966V21.9261C63.6186 19.8239 63.0433 18.1903 61.8928 17.0256C60.7564 15.8608 59.0305 15.2784 56.7152 15.2784C54.3146 15.2784 52.4325 15.804 51.0689 16.8551C49.7053 17.9062 48.7464 19.0284 48.1925 20.2216L43.4197 18.517C44.272 16.5284 45.4084 14.9801 46.8288 13.8722C48.2635 12.75 49.826 11.9687 51.5163 11.5284C53.2209 11.0739 54.897 10.8466 56.5447 10.8466C57.5959 10.8466 58.8033 10.9744 60.1669 11.2301C61.5447 11.4716 62.8729 11.9759 64.1513 12.7429C65.4439 13.5099 66.5163 14.6676 67.3686 16.2159C68.2209 17.7642 68.647 19.8381 68.647 22.4375V44H63.6186V39.5682H63.3629C63.022 40.2784 62.4538 41.0384 61.6584 41.848C60.8629 42.6577 59.8047 43.3466 58.4837 43.9148C57.1626 44.483 55.5504 44.767 53.647 44.767ZM54.4141 40.25C56.4027 40.25 58.0788 39.8594 59.4425 39.0781C60.8203 38.2969 61.8572 37.2884 62.5533 36.0526C63.2635 34.8168 63.6186 33.517 63.6186 32.1534V27.5511C63.4055 27.8068 62.9368 28.0412 62.2124 28.2543C61.5021 28.4531 60.6783 28.6307 59.7408 28.7869C58.8175 28.929 57.9155 29.0568 57.0348 29.1705C56.1683 29.2699 55.4652 29.3551 54.9254 29.4261C53.6186 29.5966 52.397 29.8736 51.2607 30.2571C50.1385 30.6264 49.2294 31.1875 48.5334 31.9403C47.8516 32.679 47.5107 33.6875 47.5107 34.9659C47.5107 36.7131 48.157 38.0341 49.4496 38.929C50.7564 39.8097 52.4112 40.25 54.4141 40.25ZM101.007 18.6023L96.4897 19.8807C96.2056 19.1278 95.7866 18.3963 95.2326 17.6861C94.6928 16.9616 93.9542 16.3651 93.0167 15.8963C92.0792 15.4276 90.8789 15.1932 89.4158 15.1932C87.413 15.1932 85.744 15.6548 84.4087 16.5781C83.0877 17.4872 82.4272 18.6449 82.4272 20.0511C82.4272 21.3011 82.8817 22.2884 83.7908 23.0128C84.6999 23.7372 86.1204 24.3409 88.0522 24.8239L92.9102 26.017C95.8363 26.7273 98.0167 27.8139 99.4514 29.277C100.886 30.7259 101.603 32.5937 101.603 34.8807C101.603 36.7557 101.064 38.4318 99.984 39.9091C98.9187 41.3864 97.4272 42.5511 95.5096 43.4034C93.592 44.2557 91.3619 44.6818 88.8192 44.6818C85.4812 44.6818 82.7184 43.9574 80.5309 42.5085C78.3434 41.0597 76.9585 38.9432 76.3761 36.1591L81.1488 34.9659C81.6033 36.7273 82.4627 38.0483 83.7269 38.929C85.0053 39.8097 86.6744 40.25 88.734 40.25C91.0778 40.25 92.9386 39.7528 94.3164 38.7585C95.7085 37.75 96.4045 36.5426 96.4045 35.1364C96.4045 34 96.0067 33.0483 95.2113 32.2812C94.4158 31.5 93.1942 30.9176 91.5465 30.5341L86.092 29.2557C83.0948 28.5455 80.8931 27.4446 79.4869 25.9531C78.0948 24.4474 77.3988 22.5653 77.3988 20.3068C77.3988 18.4602 77.9173 16.8267 78.9542 15.4062C80.0053 13.9858 81.4329 12.8707 83.2369 12.0611C85.055 11.2514 87.1147 10.8466 89.4158 10.8466C92.6545 10.8466 95.1971 11.5568 97.0437 12.9773C98.9045 14.3977 100.225 16.2727 101.007 18.6023ZM114.201 24.3125V44H109.173V0.363635H114.201V16.3864H114.627C115.394 14.696 116.545 13.3537 118.079 12.3594C119.627 11.3509 121.687 10.8466 124.258 10.8466C126.488 10.8466 128.441 11.294 130.117 12.1889C131.793 13.0696 133.093 14.4261 134.016 16.2585C134.954 18.0767 135.423 20.392 135.423 23.2045V44H130.394V23.5455C130.394 20.946 129.719 18.9361 128.37 17.5156C127.035 16.081 125.181 15.3636 122.809 15.3636C121.161 15.3636 119.684 15.7116 118.377 16.4077C117.085 17.1037 116.062 18.1193 115.309 19.4545C114.57 20.7898 114.201 22.4091 114.201 24.3125ZM145.304 44V0.363635H160.048C163.457 0.363635 166.255 0.946021 168.443 2.11079C170.63 3.26136 172.25 4.84517 173.301 6.86222C174.352 8.87926 174.877 11.1733 174.877 13.7443C174.877 16.3153 174.352 18.5952 173.301 20.5838C172.25 22.5724 170.637 24.1349 168.464 25.2713C166.291 26.3935 163.514 26.9545 160.133 26.9545H148.201V22.1818H159.963C162.292 22.1818 164.167 21.8409 165.588 21.1591C167.022 20.4773 168.059 19.5114 168.699 18.2614C169.352 16.9972 169.679 15.4915 169.679 13.7443C169.679 11.9972 169.352 10.4702 168.699 9.16335C168.045 7.85653 167.001 6.84801 165.566 6.13778C164.132 5.41335 162.235 5.05114 159.877 5.05114H150.588V44H145.304ZM165.843 24.3977L176.582 44H170.446L159.877 24.3977H165.843ZM192.631 44.767C190.558 44.767 188.675 44.3764 186.985 43.5952C185.295 42.7997 183.952 41.6562 182.958 40.1648C181.964 38.6591 181.467 36.8409 181.467 34.7102C181.467 32.8352 181.836 31.3153 182.575 30.1506C183.313 28.9716 184.3 28.0483 185.536 27.3807C186.772 26.7131 188.136 26.2159 189.627 25.8892C191.133 25.5483 192.646 25.2784 194.165 25.0795C196.154 24.8239 197.766 24.6321 199.002 24.5043C200.252 24.3622 201.161 24.1278 201.729 23.8011C202.312 23.4744 202.603 22.9062 202.603 22.0966V21.9261C202.603 19.8239 202.028 18.1903 200.877 17.0256C199.741 15.8608 198.015 15.2784 195.7 15.2784C193.299 15.2784 191.417 15.804 190.053 16.8551C188.69 17.9062 187.731 19.0284 187.177 20.2216L182.404 18.517C183.256 16.5284 184.393 14.9801 185.813 13.8722C187.248 12.75 188.81 11.9687 190.501 11.5284C192.205 11.0739 193.881 10.8466 195.529 10.8466C196.58 10.8466 197.788 10.9744 199.151 11.2301C200.529 11.4716 201.857 11.9759 203.136 12.7429C204.428 13.5099 205.501 14.6676 206.353 16.2159C207.205 17.7642 207.631 19.8381 207.631 22.4375V44H202.603V39.5682H202.347C202.006 40.2784 201.438 41.0384 200.643 41.848C199.847 42.6577 198.789 43.3466 197.468 43.9148C196.147 44.483 194.535 44.767 192.631 44.767ZM193.398 40.25C195.387 40.25 197.063 39.8594 198.427 39.0781C199.805 38.2969 200.842 37.2884 201.538 36.0526C202.248 34.8168 202.603 33.517 202.603 32.1534V27.5511C202.39 27.8068 201.921 28.0412 201.197 28.2543C200.487 28.4531 199.663 28.6307 198.725 28.7869C197.802 28.929 196.9 29.0568 196.019 29.1705C195.153 29.2699 194.45 29.3551 193.91 29.4261C192.603 29.5966 191.381 29.8736 190.245 30.2571C189.123 30.6264 188.214 31.1875 187.518 31.9403C186.836 32.679 186.495 33.6875 186.495 34.9659C186.495 36.7131 187.141 38.0341 188.434 38.929C189.741 39.8097 191.396 40.25 193.398 40.25ZM231.042 11.2727V15.5341H214.082V11.2727H231.042ZM219.025 3.43182H224.054V34.625C224.054 36.0455 224.26 37.1108 224.672 37.821C225.098 38.517 225.637 38.9858 226.291 39.2273C226.958 39.4545 227.662 39.5682 228.4 39.5682C228.954 39.5682 229.409 39.5398 229.764 39.483C230.119 39.4119 230.403 39.3551 230.616 39.3125L231.639 43.8295C231.298 43.9574 230.822 44.0852 230.211 44.2131C229.6 44.3551 228.826 44.4261 227.889 44.4261C226.468 44.4261 225.076 44.1207 223.713 43.5099C222.363 42.8991 221.241 41.9688 220.346 40.7188C219.466 39.4688 219.025 37.892 219.025 35.9886V3.43182ZM251.976 44.6818C248.823 44.6818 246.103 43.9858 243.816 42.5938C241.543 41.1875 239.789 39.2273 238.553 36.7131C237.331 34.1847 236.721 31.2443 236.721 27.892C236.721 24.5398 237.331 21.5852 238.553 19.0284C239.789 16.4574 241.507 14.4545 243.709 13.0199C245.925 11.571 248.51 10.8466 251.465 10.8466C253.169 10.8466 254.853 11.1307 256.515 11.6989C258.176 12.267 259.689 13.1903 261.053 14.4688C262.417 15.733 263.503 17.4091 264.313 19.4972C265.123 21.5852 265.527 24.1562 265.527 27.2102V29.3409H240.3V24.9943H260.414C260.414 23.1477 260.044 21.5 259.306 20.0511C258.581 18.6023 257.544 17.4588 256.195 16.6207C254.86 15.7827 253.283 15.3636 251.465 15.3636C249.462 15.3636 247.729 15.8608 246.266 16.8551C244.817 17.8352 243.702 19.1136 242.921 20.6903C242.14 22.267 241.749 23.9574 241.749 25.7614V28.6591C241.749 31.1307 242.175 33.2259 243.027 34.9446C243.894 36.6491 245.094 37.9489 246.628 38.8438C248.162 39.7244 249.945 40.1648 251.976 40.1648C253.297 40.1648 254.49 39.9801 255.556 39.6108C256.635 39.2273 257.566 38.6591 258.347 37.9062C259.128 37.1392 259.732 36.1875 260.158 35.0511L265.016 36.4148C264.505 38.0625 263.645 39.5114 262.438 40.7614C261.23 41.9972 259.739 42.9631 257.963 43.6591C256.188 44.3409 254.192 44.6818 251.976 44.6818ZM304.199 44H290.733V0.363635H304.796C309.029 0.363635 312.651 1.23722 315.662 2.98438C318.674 4.71733 320.982 7.21023 322.587 10.4631C324.192 13.7017 324.995 17.5795 324.995 22.0966C324.995 26.642 324.185 30.5554 322.566 33.8366C320.946 37.1037 318.588 39.6179 315.492 41.3793C312.395 43.1264 308.631 44 304.199 44ZM296.017 39.3125H303.858C307.466 39.3125 310.456 38.6165 312.828 37.2244C315.201 35.8324 316.969 33.8509 318.134 31.2798C319.299 28.7088 319.881 25.6477 319.881 22.0966C319.881 18.5739 319.306 15.5412 318.155 12.9986C317.005 10.4418 315.286 8.48153 312.999 7.1179C310.712 5.74006 307.864 5.05114 304.455 5.05114H296.017V39.3125ZM346.898 44.6818C343.745 44.6818 341.025 43.9858 338.738 42.5938C336.465 41.1875 334.711 39.2273 333.475 36.7131C332.253 34.1847 331.642 31.2443 331.642 27.892C331.642 24.5398 332.253 21.5852 333.475 19.0284C334.711 16.4574 336.429 14.4545 338.631 13.0199C340.847 11.571 343.432 10.8466 346.387 10.8466C348.091 10.8466 349.775 11.1307 351.436 11.6989C353.098 12.267 354.611 13.1903 355.975 14.4688C357.338 15.733 358.425 17.4091 359.235 19.4972C360.044 21.5852 360.449 24.1562 360.449 27.2102V29.3409H335.222V24.9943H355.336C355.336 23.1477 354.966 21.5 354.228 20.0511C353.503 18.6023 352.466 17.4588 351.117 16.6207C349.782 15.7827 348.205 15.3636 346.387 15.3636C344.384 15.3636 342.651 15.8608 341.188 16.8551C339.739 17.8352 338.624 19.1136 337.843 20.6903C337.061 22.267 336.671 23.9574 336.671 25.7614V28.6591C336.671 31.1307 337.097 33.2259 337.949 34.9446C338.816 36.6491 340.016 37.9489 341.55 38.8438C343.084 39.7244 344.867 40.1648 346.898 40.1648C348.219 40.1648 349.412 39.9801 350.478 39.6108C351.557 39.2273 352.488 38.6591 353.269 37.9062C354.05 37.1392 354.654 36.1875 355.08 35.0511L359.938 36.4148C359.426 38.0625 358.567 39.5114 357.36 40.7614C356.152 41.9972 354.661 42.9631 352.885 43.6591C351.11 44.3409 349.114 44.6818 346.898 44.6818ZM368.098 44V11.2727H372.956V16.3864H373.382C374.064 14.6392 375.165 13.2827 376.685 12.3168C378.205 11.3366 380.03 10.8466 382.161 10.8466C384.32 10.8466 386.117 11.3366 387.551 12.3168C389 13.2827 390.13 14.6392 390.939 16.3864H391.28C392.118 14.696 393.375 13.3537 395.051 12.3594C396.728 11.3509 398.738 10.8466 401.081 10.8466C404.007 10.8466 406.401 11.7628 408.262 13.5952C410.123 15.4134 411.053 18.2472 411.053 22.0966V44H406.025V22.0966C406.025 19.6818 405.364 17.956 404.043 16.919C402.722 15.8821 401.167 15.3636 399.377 15.3636C397.076 15.3636 395.293 16.0597 394.029 17.4517C392.765 18.8295 392.132 20.5767 392.132 22.6932V44H387.019V21.5852C387.019 19.7244 386.415 18.2259 385.208 17.0895C384 15.9389 382.445 15.3636 380.542 15.3636C379.235 15.3636 378.013 15.7116 376.877 16.4077C375.755 17.1037 374.846 18.0696 374.15 19.3054C373.468 20.527 373.127 21.9403 373.127 23.5455V44H368.098ZM433.542 44.6818C430.588 44.6818 427.995 43.9787 425.765 42.5724C423.549 41.1662 421.816 39.1989 420.566 36.6705C419.331 34.142 418.713 31.1875 418.713 27.8068C418.713 24.3977 419.331 21.4219 420.566 18.8793C421.816 16.3366 423.549 14.3622 425.765 12.956C427.995 11.5497 430.588 10.8466 433.542 10.8466C436.497 10.8466 439.082 11.5497 441.298 12.956C443.528 14.3622 445.261 16.3366 446.497 18.8793C447.747 21.4219 448.372 24.3977 448.372 27.8068C448.372 31.1875 447.747 34.142 446.497 36.6705C445.261 39.1989 443.528 41.1662 441.298 42.5724C439.082 43.9787 436.497 44.6818 433.542 44.6818ZM433.542 40.1648C435.787 40.1648 437.633 39.5895 439.082 38.4389C440.531 37.2884 441.603 35.7756 442.299 33.9006C442.995 32.0256 443.343 29.9943 443.343 27.8068C443.343 25.6193 442.995 23.581 442.299 21.6918C441.603 19.8026 440.531 18.2756 439.082 17.1108C437.633 15.946 435.787 15.3636 433.542 15.3636C431.298 15.3636 429.451 15.946 428.002 17.1108C426.554 18.2756 425.481 19.8026 424.785 21.6918C424.089 23.581 423.741 25.6193 423.741 27.8068C423.741 29.9943 424.089 32.0256 424.785 33.9006C425.481 35.7756 426.554 37.2884 428.002 38.4389C429.451 39.5895 431.298 40.1648 433.542 40.1648Z" fill="#95E29D"/>
</svg>
