<svg width="1948" height="185" viewBox="0 0 1948 185" fill="none" xmlns="http://www.w3.org/2000/svg">
<path d="M0.397373 182V0.181813H44.3427V73.1577H115.987V0.181813H159.843V182H115.987V108.935H44.3427V182H0.397373ZM225.85 184.308C217.15 184.308 209.426 182.858 202.679 179.958C195.991 176.999 190.694 172.56 186.788 166.641C182.941 160.664 181.017 153.177 181.017 144.18C181.017 136.605 182.349 130.213 185.012 125.004C187.675 119.796 191.345 115.564 196.021 112.309C200.696 109.054 206.082 106.598 212.178 104.94C218.274 103.224 224.785 102.07 231.71 101.478C239.463 100.768 245.707 100.028 250.442 99.2585C255.177 98.4299 258.609 97.2758 260.74 95.7962C262.93 94.2573 264.025 92.0971 264.025 89.3153V88.8714C264.025 84.3142 262.456 80.7926 259.32 78.3068C256.183 75.821 251.951 74.5781 246.624 74.5781C240.883 74.5781 236.267 75.821 232.775 78.3068C229.283 80.7926 227.063 84.2254 226.116 88.6051L186.077 87.1847C187.261 78.8987 190.309 71.5005 195.222 64.9901C200.193 58.4205 207 53.2713 215.641 49.5426C224.341 45.7547 234.787 43.8608 246.979 43.8608C255.68 43.8608 263.699 44.8965 271.038 46.968C278.377 48.9803 284.769 51.9396 290.214 55.8459C295.66 59.6929 299.862 64.4278 302.821 70.0504C305.839 75.6731 307.349 82.0947 307.349 89.3153V182H266.511V163.001H265.445C263.019 167.618 259.911 171.524 256.124 174.72C252.395 177.916 247.986 180.313 242.896 181.911C237.865 183.509 232.183 184.308 225.85 184.308ZM239.256 155.899C243.931 155.899 248.134 154.952 251.862 153.058C255.65 151.164 258.669 148.56 260.918 145.246C263.167 141.872 264.291 137.966 264.291 133.527V120.565C263.048 121.216 261.539 121.808 259.763 122.341C258.047 122.874 256.153 123.377 254.082 123.85C252.01 124.324 249.88 124.738 247.69 125.093C245.5 125.448 243.399 125.774 241.386 126.07C237.303 126.721 233.811 127.727 230.911 129.088C228.07 130.449 225.88 132.225 224.341 134.415C222.861 136.545 222.121 139.09 222.121 142.05C222.121 146.548 223.719 149.981 226.915 152.348C230.171 154.715 234.284 155.899 239.256 155.899ZM452.945 87.2734L413.084 88.3388C412.67 85.4979 411.545 82.9825 409.71 80.7926C407.875 78.5436 405.478 76.7976 402.519 75.5547C399.619 74.2526 396.246 73.6016 392.398 73.6016C387.368 73.6016 383.077 74.6077 379.526 76.62C376.034 78.6323 374.317 81.3549 374.376 84.7876C374.317 87.451 375.383 89.7592 377.572 91.7124C379.821 93.6655 383.817 95.2339 389.558 96.4176L415.836 101.389C429.449 103.993 439.569 108.314 446.198 114.351C452.886 120.388 456.26 128.378 456.319 138.321C456.26 147.672 453.478 155.81 447.974 162.735C442.529 169.66 435.071 175.046 425.602 178.893C416.132 182.681 405.301 184.575 393.109 184.575C373.637 184.575 358.278 180.58 347.033 172.589C335.847 164.54 329.455 153.768 327.857 140.274L370.737 139.209C371.683 144.18 374.14 147.968 378.105 150.572C382.071 153.177 387.131 154.479 393.286 154.479C398.85 154.479 403.377 153.443 406.869 151.371C410.361 149.3 412.137 146.548 412.196 143.115C412.137 140.037 410.776 137.581 408.112 135.746C405.449 133.853 401.276 132.373 395.594 131.308L371.802 126.78C358.13 124.294 347.95 119.707 341.262 113.019C334.574 106.272 331.26 97.6901 331.319 87.2734C331.26 78.1589 333.686 70.3759 338.599 63.9247C343.511 57.4143 350.495 52.4427 359.55 49.0099C368.606 45.5772 379.289 43.8608 391.599 43.8608C410.065 43.8608 424.625 47.7375 435.278 55.4908C445.932 63.1849 451.821 73.7791 452.945 87.2734ZM521.105 104.23V182H477.692V0.181813H519.684V70.6719H521.194C524.271 62.2675 529.302 55.6979 536.286 50.9631C543.329 46.2282 551.941 43.8608 562.121 43.8608C571.709 43.8608 580.054 45.9915 587.156 50.2528C594.258 54.455 599.763 60.4032 603.669 68.0973C607.634 75.7914 609.587 84.7876 609.528 95.0859V182H566.116V103.609C566.175 96.0329 564.281 90.1143 560.434 85.853C556.587 81.5916 551.171 79.4609 544.187 79.4609C539.63 79.4609 535.605 80.4671 532.113 82.4794C528.681 84.4325 525.988 87.2438 524.035 90.9134C522.141 94.5829 521.164 99.0218 521.105 104.23ZM636.628 182V0.181813H711.734C725.347 0.181813 737.095 2.63802 746.979 7.55042C756.923 12.4036 764.587 19.3875 769.973 28.5021C775.359 37.5575 778.052 48.2997 778.052 60.7287C778.052 73.3352 775.3 84.0478 769.795 92.8665C764.291 101.626 756.479 108.314 746.358 112.93C736.237 117.488 724.252 119.766 710.403 119.766H662.906V85.1428H702.235C708.864 85.1428 714.398 84.2846 718.837 82.5682C723.335 80.7926 726.738 78.1293 729.046 74.5781C731.354 70.9678 732.509 66.3513 732.509 60.7287C732.509 55.1061 731.354 50.46 729.046 46.7905C726.738 43.0618 723.335 40.2801 718.837 38.4453C714.339 36.5514 708.805 35.6044 702.235 35.6044H680.573V182H636.628ZM738.989 98.9034L784.266 182H736.326L691.937 98.9034H738.989ZM840.596 184.308C831.896 184.308 824.172 182.858 817.425 179.958C810.737 176.999 805.44 172.56 801.534 166.641C797.687 160.664 795.763 153.177 795.763 144.18C795.763 136.605 797.095 130.213 799.758 125.004C802.422 119.796 806.091 115.564 810.767 112.309C815.442 109.054 820.828 106.598 826.924 104.94C833.02 103.224 839.531 102.07 846.456 101.478C854.209 100.768 860.453 100.028 865.188 99.2585C869.923 98.4299 873.355 97.2758 875.486 95.7962C877.676 94.2573 878.771 92.0971 878.771 89.3153V88.8714C878.771 84.3142 877.203 80.7926 874.066 78.3068C870.929 75.821 866.697 74.5781 861.37 74.5781C855.629 74.5781 851.013 75.821 847.521 78.3068C844.029 80.7926 841.81 84.2254 840.863 88.6051L800.824 87.1847C802.007 78.8987 805.055 71.5005 809.968 64.9901C814.939 58.4205 821.746 53.2713 830.387 49.5426C839.087 45.7547 849.533 43.8608 861.725 43.8608C870.426 43.8608 878.445 44.8965 885.784 46.968C893.123 48.9803 899.516 51.9396 904.961 55.8459C910.406 59.6929 914.608 64.4278 917.567 70.0504C920.586 75.6731 922.095 82.0947 922.095 89.3153V182H881.257V163.001H880.191C877.765 167.618 874.658 171.524 870.87 174.72C867.141 177.916 862.732 180.313 857.642 181.911C852.611 183.509 846.929 184.308 840.596 184.308ZM854.002 155.899C858.677 155.899 862.88 154.952 866.608 153.058C870.396 151.164 873.415 148.56 875.664 145.246C877.913 141.872 879.037 137.966 879.037 133.527V120.565C877.794 121.216 876.285 121.808 874.51 122.341C872.793 122.874 870.899 123.377 868.828 123.85C866.756 124.324 864.626 124.738 862.436 125.093C860.246 125.448 858.145 125.774 856.132 126.07C852.049 126.721 848.557 127.727 845.657 129.088C842.816 130.449 840.626 132.225 839.087 134.415C837.607 136.545 836.868 139.09 836.868 142.05C836.868 146.548 838.466 149.981 841.662 152.348C844.917 154.715 849.03 155.899 854.002 155.899ZM1025.61 45.6364V77.5966H939.584V45.6364H1025.61ZM957.606 12.9659H1001.02V139.12C1001.02 141.783 1001.43 143.944 1002.26 145.601C1003.15 147.199 1004.42 148.353 1006.08 149.063C1007.74 149.714 1009.72 150.04 1012.03 150.04C1013.68 150.04 1015.43 149.892 1017.27 149.596C1019.16 149.241 1020.58 148.945 1021.53 148.708L1028.1 180.047C1026.02 180.639 1023.1 181.379 1019.31 182.266C1015.58 183.154 1011.11 183.716 1005.9 183.953C995.722 184.427 986.992 183.243 979.712 180.402C972.491 177.502 966.958 173.004 963.11 166.908C959.323 160.812 957.488 153.147 957.606 143.914V12.9659ZM1110.04 184.575C1095.77 184.575 1083.46 181.763 1073.11 176.141C1062.81 170.459 1054.88 162.38 1049.31 151.904C1043.81 141.369 1041.06 128.851 1041.06 114.351C1041.06 100.265 1043.84 87.9541 1049.4 77.419C1054.97 66.8248 1062.81 58.598 1072.93 52.7386C1083.05 46.8201 1094.98 43.8608 1108.71 43.8608C1118.41 43.8608 1127.29 45.37 1135.34 48.3885C1143.39 51.407 1150.34 55.8755 1156.2 61.794C1162.06 67.7126 1166.62 75.022 1169.88 83.7223C1173.13 92.3634 1174.76 102.277 1174.76 113.463V124.294H1056.24V99.081H1134.36C1134.3 94.4645 1133.21 90.3511 1131.08 86.7408C1128.95 83.1304 1126.02 80.3191 1122.29 78.3068C1118.62 76.2353 1114.39 75.1996 1109.59 75.1996C1104.74 75.1996 1100.39 76.2945 1096.54 78.4844C1092.7 80.6151 1089.65 83.5447 1087.4 87.2734C1085.15 90.9429 1083.97 95.1155 1083.85 99.7912V125.448C1083.85 131.012 1084.94 135.894 1087.13 140.097C1089.32 144.24 1092.43 147.465 1096.46 149.773C1100.48 152.082 1105.27 153.236 1110.84 153.236C1114.68 153.236 1118.18 152.703 1121.31 151.638C1124.45 150.572 1127.14 149.004 1129.39 146.933C1131.64 144.861 1133.33 142.316 1134.45 139.298L1174.31 140.452C1172.66 149.389 1169.02 157.172 1163.39 163.8C1157.83 170.37 1150.52 175.49 1141.47 179.159C1132.41 182.769 1121.94 184.575 1110.04 184.575ZM1317.85 182H1250.64V0.181813H1317.76C1336.28 0.181813 1352.23 3.82173 1365.61 11.1016C1379.04 18.3222 1389.4 28.7389 1396.68 42.3516C1403.96 55.9051 1407.6 72.1219 1407.6 91.0021C1407.6 109.942 1403.96 126.218 1396.68 139.83C1389.46 153.443 1379.13 163.889 1365.7 171.169C1352.26 178.39 1336.31 182 1317.85 182ZM1294.59 144.536H1316.16C1326.34 144.536 1334.95 142.819 1341.99 139.386C1349.1 135.894 1354.45 130.242 1358.06 122.43C1361.73 114.558 1363.57 104.082 1363.57 91.0021C1363.57 77.9221 1361.73 67.5054 1358.06 59.7521C1354.39 51.9396 1348.98 46.317 1341.82 42.8842C1334.71 39.3923 1325.96 37.6463 1315.54 37.6463H1294.59V144.536ZM1497 184.575C1482.74 184.575 1470.43 181.763 1460.07 176.141C1449.77 170.459 1441.84 162.38 1436.28 151.904C1430.77 141.369 1428.02 128.851 1428.02 114.351C1428.02 100.265 1430.8 87.9541 1436.37 77.419C1441.93 66.8248 1449.77 58.598 1459.89 52.7386C1470.01 46.8201 1481.94 43.8608 1495.67 43.8608C1505.38 43.8608 1514.25 45.37 1522.3 48.3885C1530.35 51.407 1537.31 55.8755 1543.17 61.794C1549.03 67.7126 1553.58 75.022 1556.84 83.7223C1560.09 92.3634 1561.72 102.277 1561.72 113.463V124.294H1443.2V99.081H1521.33C1521.27 94.4645 1520.17 90.3511 1518.04 86.7408C1515.91 83.1304 1512.98 80.3191 1509.25 78.3068C1505.58 76.2353 1501.35 75.1996 1496.56 75.1996C1491.7 75.1996 1487.35 76.2945 1483.51 78.4844C1479.66 80.6151 1476.61 83.5447 1474.36 87.2734C1472.11 90.9429 1470.93 95.1155 1470.81 99.7912V125.448C1470.81 131.012 1471.91 135.894 1474.1 140.097C1476.29 144.24 1479.39 147.465 1483.42 149.773C1487.44 152.082 1492.24 153.236 1497.8 153.236C1501.65 153.236 1505.14 152.703 1508.28 151.638C1511.41 150.572 1514.11 149.004 1516.36 146.933C1518.6 144.861 1520.29 142.316 1521.42 139.298L1561.28 140.452C1559.62 149.389 1555.98 157.172 1550.36 163.8C1544.79 170.37 1537.48 175.49 1528.43 179.159C1519.37 182.769 1508.9 184.575 1497 184.575ZM1583.89 182V45.6364H1625.18V70.6719H1626.68C1629.53 62.3859 1634.32 55.8459 1641.07 51.0518C1647.81 46.2578 1655.86 43.8608 1665.21 43.8608C1674.68 43.8608 1682.79 46.2874 1689.54 51.1406C1696.29 55.9938 1700.58 62.5043 1702.41 70.6719H1703.83C1706.38 62.5634 1711.35 56.0826 1718.75 51.2294C1726.15 46.317 1734.88 43.8608 1744.94 43.8608C1757.84 43.8608 1768.32 48.0038 1776.37 56.2898C1784.41 64.5166 1788.44 75.821 1788.44 90.2031V182H1745.03V100.146C1745.03 93.34 1743.28 88.1612 1739.79 84.6101C1736.3 80.9998 1731.77 79.1946 1726.21 79.1946C1720.23 79.1946 1715.52 81.1477 1712.09 85.054C1708.72 88.901 1707.03 94.0798 1707.03 100.59V182H1665.3V99.7024C1665.3 93.3696 1663.59 88.3684 1660.15 84.6989C1656.72 81.0294 1652.19 79.1946 1646.57 79.1946C1642.78 79.1946 1639.44 80.112 1636.54 81.9467C1633.64 83.7223 1631.36 86.2673 1629.7 89.5817C1628.11 92.8961 1627.31 96.8023 1627.31 101.3V182H1583.89ZM1878.99 184.575C1864.67 184.575 1852.36 181.645 1842.06 175.786C1831.82 169.867 1823.92 161.64 1818.36 151.105C1812.85 140.511 1810.1 128.23 1810.1 114.262C1810.1 100.235 1812.85 87.9541 1818.36 77.419C1823.92 66.8248 1831.82 58.598 1842.06 52.7386C1852.36 46.8201 1864.67 43.8608 1878.99 43.8608C1893.32 43.8608 1905.6 46.8201 1915.84 52.7386C1926.13 58.598 1934.04 66.8248 1939.54 77.419C1945.1 87.9541 1947.88 100.235 1947.88 114.262C1947.88 128.23 1945.1 140.511 1939.54 151.105C1934.04 161.64 1926.13 169.867 1915.84 175.786C1905.6 181.645 1893.32 184.575 1878.99 184.575ZM1879.26 151.815C1884.47 151.815 1888.88 150.217 1892.49 147.021C1896.1 143.825 1898.85 139.386 1900.74 133.705C1902.7 128.023 1903.67 121.453 1903.67 113.996C1903.67 106.42 1902.7 99.7912 1900.74 94.1094C1898.85 88.4276 1896.1 83.9886 1892.49 80.7926C1888.88 77.5966 1884.47 75.9986 1879.26 75.9986C1873.87 75.9986 1869.32 77.5966 1865.59 80.7926C1861.92 83.9886 1859.11 88.4276 1857.15 94.1094C1855.26 99.7912 1854.31 106.42 1854.31 113.996C1854.31 121.453 1855.26 128.023 1857.15 133.705C1859.11 139.386 1861.92 143.825 1865.59 147.021C1869.32 150.217 1873.87 151.815 1879.26 151.815Z" fill="#3DD58A"/>
</svg>
